<svg height="12.459" viewBox="0 0 42 12.459" width="38" xmlns="http://www.w3.org/2000/svg">
  <path d="m16.182 0-6.31 4.856c-.649-2.428-2.752-4.21-5.341-4.21h-4.531v11.167h4.531c2.59 0 4.855-1.78 5.34-4.208l6.31 4.854 6.313-4.854v4.207h7.12v-2.265h-4.692v-8.9h-2.59v4.207l-5.988 4.856-1.295-1.13 2.914-2.268 3.074-2.426-1.78-1.455-5.987 4.692-1.295-1.133 5.988-4.531-1.781-1.456zm-13.754 2.912h1.941c.405 0 .8.091 1.164.258.365.167.698.41.981.713s.516.666.678 1.076.252.866.252 1.352c0 .445-.082.879-.23 1.28a3.52 3.52 0 0 1 -.64 1.087 3.06 3.06 0 0 1 -.974.75c-.372.18-.785.279-1.23.279h-1.943zm35.277 6.635v2.266h-7.12v-11.166h2.589v8.9z" fill="#ffffff"/>
</svg>
