<svg width="18" height="18" viewBox="0 0 20 20" fill="none" xmlns="http://www.w3.org/2000/svg">
<path d="M13.3085 17.9375C11.7421 17.957 10.3085 16.9219 9.75775 15.4492C7.6679 15.4453 3.789 15.4531 1.74994 15.4492C0.785093 15.4805 0.0780617 14.4414 0.52728 13.5742C0.949155 12.6133 2.12884 12.8672 2.98822 12.8398C4.80072 12.8438 7.9804 12.8359 9.75775 12.8438C10.9257 9.55469 15.707 9.55078 16.8827 12.8438C18.0117 12.8438 19.5038 12.5977 19.6093 14.1367C19.6249 14.8867 18.9882 15.4648 18.2421 15.4531C17.8124 15.4531 17.2968 15.457 16.8827 15.4531C16.3359 16.9492 14.9062 17.9453 13.3085 17.9375ZM13.3202 12.9609C11.7734 12.9844 11.7773 15.3281 13.332 15.3281C14.8827 15.2813 14.8827 12.9883 13.3202 12.9609Z" fill="#64686A"/>
<path d="M3.11771 7.13672C2.70365 7.14453 2.19193 7.14063 1.75834 7.13672C1.01224 7.14844 0.375526 6.57031 0.391151 5.82031C0.492713 4.28125 1.9849 4.53125 3.11381 4.53125C4.28959 1.23828 9.07084 1.24219 10.2388 4.53125C12.0162 4.52344 15.1958 4.53125 17.0083 4.52734C17.8677 4.55469 19.0474 4.30078 19.4693 5.26172C19.9185 6.125 19.2115 7.16406 18.2466 7.13672C16.2076 7.14063 12.3287 7.13281 10.2388 7.13672C9.68803 8.60938 8.25443 9.64453 6.68803 9.625C5.09428 9.63281 3.66459 8.63672 3.11771 7.13672ZM6.6685 7.01563C8.22318 7.01172 8.22709 4.66797 6.68021 4.64844C5.11771 4.67969 5.11771 6.96875 6.6685 7.01563Z" fill="#64686A"/>
</svg>
