<svg width="25" height="25" viewBox="0 0 25 25" fill="none" xmlns="http://www.w3.org/2000/svg">
<path d="M12.5 4.6875C10.9548 4.6875 9.44437 5.14569 8.15961 6.00414C6.87485 6.86259 5.8735 8.08274 5.28219 9.51028C4.69089 10.9378 4.53617 12.5087 4.83762 14.0241C5.13907 15.5396 5.88313 16.9317 6.97573 18.0243C8.06833 19.1169 9.46038 19.8609 10.9759 20.1624C12.4913 20.4638 14.0622 20.3091 15.4897 19.7178C16.9173 19.1265 18.1374 18.1252 18.9959 16.8404C19.8543 15.5556 20.3125 14.0452 20.3125 12.5C20.3125 10.428 19.4894 8.44086 18.0243 6.97573C16.5591 5.5106 14.572 4.6875 12.5 4.6875ZM12.5 18.75C11.2639 18.75 10.0555 18.3834 9.02769 17.6967C7.99988 17.0099 7.1988 16.0338 6.72576 14.8918C6.25271 13.7497 6.12894 12.4931 6.3701 11.2807C6.61125 10.0683 7.20651 8.95466 8.08059 8.08058C8.95466 7.2065 10.0683 6.61125 11.2807 6.37009C12.4931 6.12893 13.7497 6.25271 14.8918 6.72575C16.0338 7.1988 17.0099 7.99988 17.6967 9.02769C18.3834 10.0555 18.75 11.2639 18.75 12.5C18.75 14.1576 18.0915 15.7473 16.9194 16.9194C15.7473 18.0915 14.1576 18.75 12.5 18.75Z" fill="#25A249"/>
<path d="M9.92942 14.6184L12.4997 12.0403L15.07 14.6184C15.2172 14.7655 15.4167 14.8481 15.6247 14.8481C15.8328 14.8481 16.0323 14.7655 16.1794 14.6184C16.3265 14.4713 16.4092 14.2717 16.4092 14.0637C16.4092 13.8557 16.3265 13.6561 16.1794 13.509L13.0544 10.384C12.9818 10.3108 12.8954 10.2527 12.8002 10.213C12.705 10.1733 12.6029 10.1529 12.4997 10.1529C12.3966 10.1529 12.2945 10.1733 12.1993 10.213C12.1041 10.2527 12.0177 10.3108 11.945 10.384L8.82005 13.509C8.7472 13.5819 8.68942 13.6683 8.65 13.7635C8.61058 13.8587 8.59029 13.9607 8.59029 14.0637C8.59029 14.1667 8.61058 14.2687 8.65 14.3639C8.68942 14.4591 8.7472 14.5455 8.82005 14.6184C8.89289 14.6912 8.97937 14.749 9.07454 14.7884C9.16971 14.8279 9.27172 14.8481 9.37473 14.8481C9.47775 14.8481 9.57975 14.8279 9.67493 14.7884C9.7701 14.749 9.85658 14.6912 9.92942 14.6184Z" fill="#25A249"/>
</svg>
