<svg width="25" height="25" viewBox="0 0 25 25" fill="none" xmlns="http://www.w3.org/2000/svg">
<path d="M12.5 4.6875C10.9548 4.6875 9.44437 5.14569 8.15961 6.00414C6.87485 6.86259 5.8735 8.08274 5.28219 9.51028C4.69089 10.9378 4.53617 12.5087 4.83762 14.0241C5.13907 15.5396 5.88313 16.9317 6.97573 18.0243C8.06833 19.1169 9.46038 19.8609 10.9759 20.1624C12.4913 20.4638 14.0622 20.3091 15.4897 19.7178C16.9173 19.1265 18.1374 18.1252 18.9959 16.8404C19.8543 15.5556 20.3125 14.0452 20.3125 12.5C20.3125 10.428 19.4894 8.44086 18.0243 6.97573C16.5591 5.5106 14.572 4.6875 12.5 4.6875ZM12.5 18.75C11.2639 18.75 10.0555 18.3834 9.02769 17.6967C7.99988 17.0099 7.1988 16.0338 6.72576 14.8918C6.25271 13.7497 6.12894 12.4931 6.3701 11.2807C6.61125 10.0683 7.20651 8.95466 8.08059 8.08058C8.95466 7.2065 10.0683 6.61125 11.2807 6.37009C12.4931 6.12893 13.7497 6.25271 14.8918 6.72575C16.0338 7.1988 17.0099 7.99988 17.6967 9.02769C18.3834 10.0555 18.75 11.2639 18.75 12.5C18.75 14.1576 18.0915 15.7473 16.9194 16.9194C15.7473 18.0915 14.1576 18.75 12.5 18.75Z" fill="#FF0000"/>
<path d="M15.0701 10.3826L12.4998 12.9607L9.92947 10.3826C9.78235 10.2355 9.58283 10.1528 9.37478 10.1528C9.16673 10.1528 8.9672 10.2355 8.82009 10.3826C8.67298 10.5297 8.59033 10.7292 8.59033 10.9373C8.59033 11.1453 8.67298 11.3449 8.82009 11.492L11.9451 14.617C12.0177 14.6902 12.1041 14.7483 12.1993 14.788C12.2945 14.8276 12.3966 14.8481 12.4998 14.8481C12.6029 14.8481 12.705 14.8276 12.8002 14.788C12.8954 14.7483 12.9818 14.6902 13.0545 14.617L16.1795 11.492C16.2523 11.4191 16.3101 11.3326 16.3495 11.2375C16.3889 11.1423 16.4092 11.0403 16.4092 10.9373C16.4092 10.8343 16.3889 10.7323 16.3495 10.6371C16.3101 10.5419 16.2523 10.4554 16.1795 10.3826C16.1066 10.3097 16.0201 10.252 15.925 10.2125C15.8298 10.1731 15.7278 10.1528 15.6248 10.1528C15.5218 10.1528 15.4198 10.1731 15.3246 10.2125C15.2294 10.252 15.1429 10.3097 15.0701 10.3826Z" fill="#FF0000"/>
</svg>
